<svg width="13" height="13" viewBox="0 0 13 13" fill="none" xmlns="http://www.w3.org/2000/svg">
<path d="M11.1875 12.1484C11.1328 12.1484 11.0781 12.1484 11.0234 12.1484C9.27344 11.9297 7.52344 11.3281 6.04688 10.3984C4.67969 9.52344 3.47656 8.32031 2.60156 6.95312C1.61719 5.47656 1.01562 3.72656 0.851562 1.97656C0.851563 1.53906 0.960937 1.10156 1.23437 0.773437C1.50781 0.445312 1.89062 0.226562 2.32812 0.171875C2.38281 0.171875 2.4375 0.171875 2.49219 0.171875H4.13281C4.95312 0.171875 5.66406 0.773437 5.77344 1.59375C5.82812 2.08594 5.9375 2.57812 6.10156 3.01562C6.32031 3.61719 6.15625 4.27344 5.71875 4.76562L5.33594 5.14844C5.99219 6.13281 6.8125 7.00781 7.85156 7.66406L8.23438 7.28125C8.67188 6.84375 9.38281 6.67969 9.98437 6.89844C10.4219 7.0625 10.9141 7.17188 11.4062 7.22656C12.2266 7.33594 12.8281 8.04688 12.8281 8.86719V10.5078C12.8281 10.9453 12.6641 11.3828 12.3359 11.6562C12.0078 11.9297 11.625 12.1484 11.1875 12.1484ZM4.13281 1.26562H2.49219C2.32812 1.26562 2.16406 1.375 2.05469 1.48438C2 1.59375 1.94531 1.70312 1.94531 1.86719C2.10938 3.45312 2.65625 4.98438 3.53125 6.35156C4.35156 7.60938 5.39062 8.70312 6.64844 9.46875C8.01562 10.3438 9.54688 10.8906 11.1328 11.0547C11.3516 11.0547 11.4609 11 11.5703 10.8906C11.6797 10.7812 11.7344 10.6719 11.7344 10.5078V8.86719C11.7344 8.59375 11.5156 8.375 11.2422 8.32031C10.6953 8.26562 10.1484 8.10156 9.60156 7.88281C9.38281 7.82812 9.16406 7.82812 9 7.99219L8.28906 8.70312C8.125 8.86719 7.85156 8.92188 7.63281 8.8125C6.15625 7.99219 4.95312 6.78906 4.13281 5.3125C4.07812 5.09375 4.13281 4.82031 4.29688 4.65625L5.00781 3.94531C5.11719 3.83594 5.17188 3.5625 5.11719 3.39844C4.89844 2.85156 4.78906 2.30469 4.67969 1.75781C4.67969 1.48438 4.40625 1.26562 4.13281 1.26562Z" fill="white"/>
</svg>
