<svg width="18" height="18" viewBox="0 0 18 18" fill="none" xmlns="http://www.w3.org/2000/svg">
<path fill-rule="evenodd" clip-rule="evenodd" d="M8.16663 2.33329C4.94496 2.33329 2.33329 4.94496 2.33329 8.16663C2.33329 11.3883 4.94496 14 8.16663 14C9.7383 14 11.1648 13.3784 12.2137 12.3677C12.2356 12.3392 12.2596 12.3118 12.2857 12.2857C12.3118 12.2596 12.3392 12.2356 12.3677 12.2137C13.3784 11.1648 14 9.7383 14 8.16663C14 4.94496 11.3883 2.33329 8.16663 2.33329ZM14.0265 12.848C15.0529 11.565 15.6666 9.93747 15.6666 8.16663C15.6666 4.02449 12.3088 0.666626 8.16663 0.666626C4.02449 0.666626 0.666626 4.02449 0.666626 8.16663C0.666626 12.3088 4.02449 15.6666 8.16663 15.6666C9.93747 15.6666 11.565 15.0529 12.848 14.0265L15.9107 17.0892C16.2362 17.4147 16.7638 17.4147 17.0892 17.0892C17.4147 16.7638 17.4147 16.2362 17.0892 15.9107L14.0265 12.848Z" fill="#001689"/>
</svg>
